<svg version="1.1" id="Layer_1" xmlns="http://www.w3.org/2000/svg" xmlns:xlink="http://www.w3.org/1999/xlink" x="0px" y="0px"
	 width="100%" viewBox="0 0 880 1010" enable-background="new 0 0 880 1010" xml:space="preserve">
<path fill="#FFFFFF" opacity="1.000000" stroke="none" 
	d="
M484.000000,1011.000000 
	C322.666656,1011.000000 161.833328,1011.000000 1.000000,1011.000000 
	C1.000000,674.333313 1.000000,337.666656 1.000000,1.000000 
	C294.333344,1.000000 587.666687,1.000000 881.000000,1.000000 
	C881.000000,337.666656 881.000000,674.333313 881.000000,1011.000000 
	C748.833313,1011.000000 616.666687,1011.000000 484.000000,1011.000000 
M152.207993,238.179153 
	C150.161591,242.465714 148.115189,246.752258 145.721161,251.644241 
	C141.965118,262.787598 137.037918,273.688263 134.669342,285.119110 
	C127.117271,321.566040 132.578812,356.365540 151.283981,388.643921 
	C166.249664,414.469208 187.400482,433.983246 213.908417,447.867615 
	C246.040115,464.697693 280.016388,468.118927 314.821350,460.492188 
	C373.256409,447.687531 419.170288,398.451263 429.229034,339.195587 
	C434.818054,306.270874 429.987244,274.666931 414.138947,245.342422 
	C391.702271,203.827209 356.913177,178.051331 310.594482,168.765381 
	C270.226807,160.672501 232.563629,168.320190 198.028381,190.781021 
	C181.381897,201.607483 167.375824,215.175980 156.038010,232.218262 
	C154.947220,234.072983 153.856430,235.927689 152.207993,238.179153 
M663.500000,191.999374 
	C604.289551,191.999374 545.079102,191.999374 486.097656,191.999374 
	C486.097656,264.479645 486.097656,336.206512 486.097656,407.810181 
	C569.268127,407.810181 652.123352,407.810181 734.773560,407.810181 
	C734.773560,375.228638 734.773560,343.006012 734.773560,310.395630 
	C691.174072,310.395630 647.915955,310.395630 604.416260,310.395630 
	C604.416260,303.429077 604.416260,296.853973 604.416260,289.774963 
	C648.030884,289.774963 691.414856,289.774963 734.775146,289.774963 
	C734.775146,256.899048 734.775146,224.528000 734.775146,191.999374 
	C711.122620,191.999374 687.811340,191.999374 663.500000,191.999374 
M669.500061,537.157959 
	C603.931580,537.157959 538.363159,537.157959 472.677551,537.157959 
	C472.677551,558.787903 472.677551,579.719421 472.677551,601.042297 
	C518.683838,601.042297 564.448853,601.042297 610.160461,601.042297 
	C610.160461,605.336609 610.160461,609.232788 610.160461,613.694519 
	C564.101868,613.694519 518.387207,613.694519 472.720520,613.694519 
	C472.720520,660.528015 472.720520,706.784973 472.720520,753.250671 
	C555.909912,753.250671 638.812988,753.250671 721.668579,753.250671 
	C721.668579,731.919983 721.668579,710.855774 721.668579,689.319824 
	C675.641296,689.319824 629.929749,689.319824 584.299622,689.319824 
	C584.299622,684.771912 584.299622,680.708191 584.299622,676.199585 
	C630.360657,676.199585 676.085327,676.199585 721.691833,676.199585 
	C721.691833,629.658325 721.691833,583.571472 721.691833,537.157959 
	C704.432861,537.157959 687.466492,537.157959 669.500061,537.157959 
M417.035767,583.500000 
	C417.035767,568.099487 417.035767,552.698975 417.035767,537.398926 
	C333.522156,537.398926 250.791275,537.398926 167.979980,537.398926 
	C167.979980,567.855896 167.979980,598.073547 167.979980,628.728088 
	C213.728760,628.728088 259.125427,628.728088 305.059021,628.728088 
	C305.059021,670.522949 305.059021,711.882019 305.059021,753.205078 
	C342.669678,753.205078 379.738373,753.205078 417.035767,753.205078 
	C417.035767,696.766296 417.035767,640.633118 417.035767,583.500000 
z"/>
<path fill="#000000" opacity="1.000000" stroke="none" 
	d="
M664.000000,191.999374 
	C687.811340,191.999374 711.122620,191.999374 734.775146,191.999374 
	C734.775146,224.528000 734.775146,256.899048 734.775146,289.774963 
	C691.414856,289.774963 648.030884,289.774963 604.416260,289.774963 
	C604.416260,296.853973 604.416260,303.429077 604.416260,310.395630 
	C647.915955,310.395630 691.174072,310.395630 734.773560,310.395630 
	C734.773560,343.006012 734.773560,375.228638 734.773560,407.810181 
	C652.123352,407.810181 569.268127,407.810181 486.097656,407.810181 
	C486.097656,336.206512 486.097656,264.479645 486.097656,191.999374 
	C545.079102,191.999374 604.289551,191.999374 664.000000,191.999374 
z"/>
<path fill="#020202" opacity="1.000000" stroke="none" 
	d="
M670.000122,537.157959 
	C687.466492,537.157959 704.432861,537.157959 721.691833,537.157959 
	C721.691833,583.571472 721.691833,629.658325 721.691833,676.199585 
	C676.085327,676.199585 630.360657,676.199585 584.299622,676.199585 
	C584.299622,680.708191 584.299622,684.771912 584.299622,689.319824 
	C629.929749,689.319824 675.641296,689.319824 721.668579,689.319824 
	C721.668579,710.855774 721.668579,731.919983 721.668579,753.250671 
	C638.812988,753.250671 555.909912,753.250671 472.720520,753.250671 
	C472.720520,706.784973 472.720520,660.528015 472.720520,613.694519 
	C518.387207,613.694519 564.101868,613.694519 610.160461,613.694519 
	C610.160461,609.232788 610.160461,605.336609 610.160461,601.042297 
	C564.448853,601.042297 518.683838,601.042297 472.677551,601.042297 
	C472.677551,579.719421 472.677551,558.787903 472.677551,537.157959 
	C538.363159,537.157959 603.931580,537.157959 670.000122,537.157959 
z"/>
<path fill="#121212" opacity="1.000000" stroke="none" 
	d="
M156.621643,231.969528 
	C167.375824,215.175980 181.381897,201.607483 198.028381,190.781021 
	C232.563629,168.320190 270.226807,160.672501 310.594482,168.765381 
	C356.913177,178.051331 391.702271,203.827209 414.138947,245.342422 
	C429.987244,274.666931 434.818054,306.270874 429.229034,339.195587 
	C419.170288,398.451263 373.256409,447.687531 314.821350,460.492188 
	C280.016388,468.118927 246.040115,464.697693 213.908417,447.867615 
	C187.400482,433.983246 166.249664,414.469208 151.283981,388.643921 
	C132.578812,356.365540 127.117271,321.566040 134.669342,285.119110 
	C137.037918,273.688263 141.965118,262.787598 146.231354,251.379776 
	C147.537033,250.885239 148.332520,250.655167 149.450134,250.252472 
	C152.706635,248.568665 155.625900,247.027222 158.579636,245.554871 
	C161.491547,244.103348 163.528275,244.178680 164.125305,248.176407 
	C164.683716,251.915573 165.758713,255.580444 166.662064,259.264343 
	C167.478943,262.595581 168.149567,265.886810 165.456223,269.085205 
	C164.754410,270.506439 164.314209,271.730255 163.627777,273.160797 
	C162.920624,275.056549 162.459702,276.745514 161.940063,278.630951 
	C161.881363,278.827393 162.055725,279.198578 161.843704,279.401550 
	C161.540787,280.401001 161.449875,281.197510 161.226685,282.409546 
	C162.128555,287.948669 163.454086,293.035309 164.109085,298.206879 
	C164.682175,302.731781 166.362686,306.386230 169.967850,309.552734 
	C170.923630,311.866394 171.778610,313.850861 172.728867,315.788574 
	C173.941620,318.261597 174.662415,322.131470 176.588257,322.895233 
	C184.143417,325.891357 189.128311,331.799347 194.791016,337.002228 
	C195.583786,337.730621 196.660217,338.150269 197.736710,338.791016 
	C197.414001,334.896240 197.118713,331.332397 196.806046,327.558685 
	C195.195618,327.336304 193.777817,327.140533 191.126129,326.774353 
	C193.076202,323.334564 194.668091,320.526550 196.259995,317.718536 
	C195.929337,317.327576 195.598694,316.936584 195.268036,316.545624 
	C193.393311,317.562195 191.459808,318.485199 189.657867,319.617584 
	C187.056458,321.252258 184.984070,321.085968 183.454544,318.222046 
	C180.468521,312.630768 181.952759,306.924042 187.417831,303.721222 
	C189.551865,302.470551 191.999588,301.763977 194.175934,300.574463 
	C197.024643,299.017517 198.828079,300.051331 200.372467,302.508789 
	C201.613068,304.482849 202.999390,306.365326 204.321060,308.288422 
	C204.729935,308.208588 205.138809,308.128754 205.547684,308.048920 
	C203.261505,300.449615 207.360336,295.209534 211.911469,290.536469 
	C216.276154,286.054871 221.106583,281.935303 226.163055,278.247162 
	C230.411041,275.148712 235.190460,272.847504 232.402405,265.970520 
	C235.339188,265.547913 237.621338,265.317871 239.861832,264.876373 
	C244.382141,263.985535 245.632706,261.740570 244.124802,257.375702 
	C243.046494,254.254364 241.913452,251.151962 240.768829,247.940063 
	C239.185867,248.717819 237.650314,249.472260 236.114761,250.226700 
	C236.310562,249.722641 236.506363,249.218597 236.702164,248.714539 
	C233.801498,246.801422 230.900833,244.888306 228.002472,242.642166 
	C227.438370,241.535507 226.871964,240.761871 226.183365,239.689209 
	C226.001160,238.607147 225.941162,237.824097 226.148605,237.020325 
	C226.839020,236.651352 227.261963,236.303116 227.684906,235.954895 
	C227.246857,235.604080 226.808777,235.253250 225.972809,234.893433 
	C221.755295,232.647034 223.108780,229.149612 223.295898,225.592773 
	C222.804474,225.122086 222.406952,224.972046 221.680817,224.661163 
	C220.880203,224.582184 220.408203,224.664047 219.625397,224.725388 
	C219.082962,225.506638 218.851334,226.308426 218.648132,227.495529 
	C217.669342,230.615402 216.662109,233.349945 215.450592,236.639160 
	C212.996933,234.807175 211.579590,233.748932 210.217377,232.375092 
	C210.294312,231.419373 210.316101,230.779236 210.650681,229.943405 
	C211.608963,227.590439 214.078979,224.786072 208.911545,224.262726 
	C206.454407,223.948944 204.226669,223.981567 201.710205,223.971741 
	C201.317017,224.282364 201.212555,224.635406 200.988586,225.330704 
	C201.874039,227.507050 202.879028,229.341141 204.338440,232.004562 
	C202.522247,231.876663 201.364410,232.027130 200.381271,231.681137 
	C197.737152,230.750671 195.239059,229.346619 192.551346,228.612747 
	C188.760605,227.577713 184.881943,226.615387 180.984756,226.286316 
	C176.669617,225.921982 172.115692,225.583664 167.993927,226.584946 
	C164.460953,227.443222 161.391144,230.208084 157.742249,232.094849 
	C157.119202,232.029785 156.870422,231.999664 156.621643,231.969528 
M229.505920,224.609772 
	C228.329147,225.451920 227.152374,226.294052 225.896225,227.192993 
	C228.741272,231.601715 238.928207,230.812866 232.783783,239.483459 
	C235.030243,240.929306 237.036743,242.220718 238.910355,243.426590 
	C239.745850,241.244171 239.965088,239.109100 241.140854,237.919144 
	C243.745895,235.282684 243.350189,232.646912 241.279480,230.495132 
	C239.182526,228.316086 236.328522,226.875977 233.868362,225.029266 
	C233.192001,224.521576 232.738480,223.717010 232.914719,223.158600 
	C234.637039,222.242737 236.366501,221.339996 238.080124,220.408127 
	C241.144760,218.741562 244.011292,216.815491 247.758667,219.206192 
	C251.453171,221.563141 253.439087,224.393799 253.261475,228.975922 
	C253.095169,233.266418 253.223801,237.662384 254.031815,241.856003 
	C254.421722,243.879623 256.670837,245.545029 258.078125,247.372620 
	C259.820526,245.900986 262.393219,244.757645 263.132050,242.889175 
	C264.658386,239.029083 267.178986,236.579803 270.984650,236.093811 
	C280.324005,234.901108 283.333710,228.131821 285.408264,220.484909 
	C286.758362,215.508331 285.563843,213.955505 280.541748,213.931656 
	C268.400879,213.874008 256.215485,213.330551 244.139130,214.219864 
	C239.049896,214.594635 234.087128,217.878052 229.272110,220.255035 
	C227.048950,221.352493 227.273743,223.138367 229.505920,224.609772 
M212.215546,385.665009 
	C213.794266,390.036499 216.070633,394.298340 216.779236,398.806580 
	C217.714325,404.755707 217.419617,410.898102 217.425232,417.676941 
	C218.540955,426.643158 223.845459,433.211456 229.926193,439.521271 
	C230.468323,435.111511 230.800049,430.805023 230.356461,426.579926 
	C230.039169,423.557709 230.629135,422.030396 233.301254,420.187408 
	C236.696732,417.845520 239.842514,414.628723 241.995193,411.114777 
	C245.462341,405.455109 248.174408,399.484772 254.123001,395.675079 
	C257.651886,393.415039 259.939331,389.992310 260.222382,385.345062 
	C260.366913,382.972626 261.525513,380.532227 262.694489,378.376709 
	C265.968567,372.339386 265.716095,370.708557 259.761627,365.238525 
	C257.299194,363.906799 254.903732,361.616791 252.360672,361.439087 
	C246.742966,361.046631 243.253098,358.075562 240.032623,353.252899 
	C233.203964,344.738251 226.519211,335.799500 213.907318,336.635681 
	C209.720642,336.913239 205.612808,338.380096 202.059357,339.171692 
	C202.059357,343.420013 202.986115,347.440338 201.897415,350.809418 
	C197.409714,364.696991 201.078476,375.835205 212.215546,385.665009 
M290.369781,345.657715 
	C291.582642,345.717377 292.795532,345.777039 294.770081,345.968872 
	C296.521942,345.746185 298.273804,345.523499 300.862274,345.426727 
	C307.727264,344.955688 309.352844,346.097565 312.069733,352.489929 
	C316.501251,362.916504 317.120636,373.898254 316.932068,385.860840 
	C318.218628,391.453766 318.726379,397.387726 320.988464,402.553436 
	C323.826843,409.035126 331.698425,410.046936 336.817841,405.161865 
	C339.805817,402.310638 342.341583,398.968170 344.925354,395.722931 
	C345.568756,394.914795 345.580627,393.617401 345.934601,392.562317 
	C346.604156,390.566650 346.763611,388.038239 348.102020,386.694122 
	C352.739410,382.036926 355.479980,377.041809 353.731598,370.250549 
	C352.216125,364.363800 354.536499,360.184906 359.379059,356.585907 
	C365.393311,352.116119 367.773163,345.554230 368.454315,337.988434 
	C358.720551,340.352448 358.720551,340.352448 355.097443,337.234100 
	C349.591736,328.730835 345.082916,316.596222 345.578186,310.942413 
	C346.952301,312.616516 348.439453,313.841248 349.163025,315.416687 
	C351.633362,320.795349 353.897339,326.272308 356.112030,331.763397 
	C357.160187,334.362274 358.279724,338.684265 361.302765,336.855164 
	C367.575684,333.059662 373.079102,327.939240 378.608643,323.036194 
	C379.293182,322.429169 378.758392,319.352264 377.813782,318.273407 
	C376.567017,316.849426 374.250427,315.313843 372.580658,315.500305 
	C367.037811,316.119232 362.955963,312.703156 362.770782,307.055603 
	C368.106354,308.870697 373.617157,310.745453 379.759949,312.889130 
	C390.509918,314.118347 397.445190,319.422394 399.923065,330.456787 
	C400.804230,334.380951 402.062653,338.848022 407.957794,341.754608 
	C408.292664,337.390198 408.814148,333.964233 408.768890,330.545746 
	C408.637421,320.611206 411.184021,317.030212 421.917206,314.260925 
	C419.459595,301.211945 416.982605,288.060120 414.435028,274.115417 
	C412.975006,270.144135 411.881775,265.986786 409.981018,262.239044 
	C405.592743,253.586685 400.812805,245.132980 395.990723,235.976471 
	C394.716705,234.273666 393.379333,232.614075 392.181580,230.859222 
	C389.499054,226.929123 386.572418,223.531219 380.351501,224.563751 
	C377.362610,224.610489 374.278717,224.210800 371.409821,224.821335 
	C368.111938,225.523102 364.624969,226.605057 361.983002,228.555328 
	C360.763336,229.455673 361.356140,232.811295 361.111572,235.206329 
	C359.489868,234.788864 357.910156,234.245392 356.285156,233.989700 
	C351.541901,233.243317 346.810638,232.077759 342.523407,235.826263 
	C340.784210,237.346924 338.337189,238.039963 336.260803,239.196732 
	C331.576569,241.806366 332.990112,237.247650 331.728546,235.561615 
	C327.466339,229.865097 316.856415,229.967468 311.978119,235.538574 
	C309.369293,238.517929 306.450134,241.268356 304.185364,244.484314 
	C303.328064,245.701660 303.186340,248.971176 303.974884,249.528931 
	C307.236969,251.836258 310.980103,253.463440 314.518402,255.325653 
	C316.866638,252.249023 318.300354,249.205109 316.411469,245.167526 
	C315.774567,243.806152 316.672119,241.579529 317.244385,239.874557 
	C317.464020,239.220123 318.804840,238.472488 319.501160,238.586090 
	C320.134399,238.689407 320.817902,239.829239 321.076843,240.640579 
	C322.016632,243.585571 322.787415,246.584503 323.621918,249.563080 
	C324.097656,249.458649 324.573395,249.354233 325.049133,249.249802 
	C322.158173,258.641571 318.657532,260.350037 309.599701,257.448029 
	C305.800079,260.970703 302.370911,264.254242 298.821320,267.401978 
	C296.662018,269.316803 293.603333,270.527771 296.128082,274.470917 
	C296.851990,275.601532 295.836090,277.846100 295.670898,279.159058 
	C292.786621,280.719604 288.732269,276.574615 287.864227,281.891479 
	C287.372681,284.902344 286.725342,288.154266 290.472961,289.557739 
	C293.906952,290.843750 297.137512,290.201996 299.289368,286.955109 
	C300.476868,285.163330 301.285675,283.122009 302.283142,281.202515 
	C304.086517,277.732269 306.378510,276.349976 309.664551,279.555847 
	C312.689423,282.506927 315.692596,285.480225 318.705353,288.443756 
	C318.989899,288.440704 319.274475,288.437653 319.559021,288.434570 
	C317.661469,284.400238 315.763885,280.365875 313.866333,276.331512 
	C314.370178,275.961700 314.873993,275.591919 315.377838,275.222107 
	C318.260284,278.811890 321.142700,282.401642 324.055084,286.718201 
	C324.882843,287.924774 325.710602,289.131317 327.423309,291.627777 
	C328.145844,288.352966 328.516022,286.675262 329.253113,284.652802 
	C329.715942,284.480194 330.178802,284.307587 330.997559,284.778778 
	C331.900543,286.984131 332.371490,289.530670 333.791077,291.327972 
	C337.407623,295.906769 341.613373,293.582001 345.487823,292.618378 
	C345.305359,293.741547 345.052338,294.858459 344.951721,295.988922 
	C344.220978,304.198822 344.230713,304.199677 335.252563,303.934326 
	C332.503693,303.328979 329.754822,302.723663 326.313873,301.849396 
	C325.882721,302.566650 325.451599,303.283936 324.595398,304.562317 
	C322.079742,306.634155 319.762848,306.178741 317.935516,303.724487 
	C316.091431,301.247681 314.655426,298.463257 312.771240,296.021484 
	C311.655731,294.575836 310.162170,292.717346 308.592651,292.440887 
	C298.409760,290.647125 288.427155,295.472351 283.149811,304.332336 
	C282.133362,306.038818 281.104553,307.739655 280.145935,309.478638 
	C272.653778,323.070282 274.838562,334.565643 290.369781,345.657715 
M294.850861,266.227448 
	C296.431152,265.421539 298.011414,264.615662 300.907990,263.138458 
	C297.002991,260.142853 293.839020,257.715759 290.675079,255.288635 
	C289.228607,257.943420 287.782104,260.598206 286.335632,263.252991 
	C286.718903,263.464874 287.102142,263.676788 287.485382,263.888672 
	C288.879333,263.249695 290.273254,262.610718 291.054352,262.252655 
	C292.266693,263.924377 293.215698,265.232971 294.850861,266.227448 
M205.558121,309.398071 
	C205.558121,309.398071 205.449036,309.273895 205.449036,309.273895 
	C205.449036,309.273895 205.411514,309.502502 205.558121,309.398071 
z"/>
<path fill="#010101" opacity="1.000000" stroke="none" 
	d="
M417.035767,584.000000 
	C417.035767,640.633118 417.035767,696.766296 417.035767,753.205078 
	C379.738373,753.205078 342.669678,753.205078 305.059021,753.205078 
	C305.059021,711.882019 305.059021,670.522949 305.059021,628.728088 
	C259.125427,628.728088 213.728760,628.728088 167.979980,628.728088 
	C167.979980,598.073547 167.979980,567.855896 167.979980,537.398926 
	C250.791275,537.398926 333.522156,537.398926 417.035767,537.398926 
	C417.035767,552.698975 417.035767,568.099487 417.035767,584.000000 
z"/>
<path fill="#636363" opacity="1.000000" stroke="none" 
	d="
M149.127991,250.425079 
	C148.332520,250.655167 147.537033,250.885239 146.405182,251.077057 
	C148.115189,246.752258 150.161591,242.465714 152.732712,238.217041 
	C153.420959,238.412842 153.584473,238.570770 153.549896,239.005783 
	C152.336609,241.166840 151.131516,242.977173 150.363632,244.957062 
	C149.695297,246.680267 149.520737,248.594986 149.127991,250.425079 
z"/>
<path fill="#636363" opacity="1.000000" stroke="none" 
	d="
M156.329834,232.093903 
	C156.870422,231.999664 157.119202,232.029785 157.642639,232.417267 
	C156.527542,234.759293 155.137772,236.744003 153.748016,238.728699 
	C153.584473,238.570770 153.420959,238.412842 153.011536,238.018646 
	C153.856430,235.927689 154.947220,234.072983 156.329834,232.093903 
z"/>
<path fill="#B3B3B3" opacity="1.000000" stroke="none" 
	d="
M335.989380,304.168640 
	C344.230713,304.199677 344.220978,304.198822 344.951721,295.988922 
	C345.052338,294.858459 345.305359,293.741547 345.837463,292.017181 
	C348.338379,288.897003 350.535126,286.415222 352.630615,283.850677 
	C356.152924,279.539917 359.566620,275.139740 363.126404,270.860748 
	C364.033447,269.770447 365.271332,268.929749 366.437958,268.085968 
	C369.709167,265.719971 374.142426,264.102448 376.091125,260.940857 
	C380.433014,253.896454 386.253876,248.541840 392.221375,243.109802 
	C394.025543,241.467514 394.894440,238.797791 396.191742,236.598694 
	C400.812805,245.132980 405.592743,253.586685 409.981018,262.239044 
	C411.881775,265.986786 412.975006,270.144135 414.054321,274.534607 
	C408.910004,277.675049 403.818298,279.959686 399.467377,283.229980 
	C394.228577,287.167633 388.977600,291.431580 384.931305,296.509949 
	C381.402222,300.939178 375.700317,305.371552 379.127960,312.620178 
	C373.617157,310.745453 368.106354,308.870697 362.770782,307.055603 
	C362.955963,312.703156 367.037811,316.119232 372.580658,315.500305 
	C374.250427,315.313843 376.567017,316.849426 377.813782,318.273407 
	C378.758392,319.352264 379.293182,322.429169 378.608643,323.036194 
	C373.079102,327.939240 367.575684,333.059662 361.302765,336.855164 
	C358.279724,338.684265 357.160187,334.362274 356.112030,331.763397 
	C353.897339,326.272308 351.633362,320.795349 349.163025,315.416687 
	C348.439453,313.841248 346.952301,312.616516 345.578186,310.942413 
	C345.082916,316.596222 349.591736,328.730835 354.862976,337.610962 
	C350.366058,341.542725 346.616058,346.318268 341.723511,348.371979 
	C334.008514,351.610443 337.477905,363.142120 328.388794,364.537201 
	C326.246674,369.575989 324.307770,374.716278 321.866302,379.605621 
	C320.833832,381.673218 318.744080,383.212891 317.134888,384.992523 
	C317.120636,373.898254 316.501251,362.916504 312.069733,352.489929 
	C309.352844,346.097565 307.727264,344.955688 300.442932,344.976593 
	C300.995483,343.358398 301.887573,342.111389 302.952515,341.035461 
	C308.617462,335.312195 314.387604,329.691681 319.984802,323.903534 
	C321.893890,321.929321 323.365601,319.538391 325.108093,317.395538 
	C328.709961,312.966064 332.359467,308.575317 335.989380,304.168640 
z"/>
<path fill="#BEBEBE" opacity="1.000000" stroke="none" 
	d="
M324.025146,285.991425 
	C321.142700,282.401642 318.260284,278.811890 315.377838,275.222107 
	C314.873993,275.591919 314.370178,275.961700 313.866333,276.331512 
	C315.763885,280.365875 317.661469,284.400238 319.559021,288.434570 
	C319.274475,288.437653 318.989899,288.440704 318.705353,288.443756 
	C315.692596,285.480225 312.689423,282.506927 309.664551,279.555847 
	C306.378510,276.349976 304.086517,277.732269 302.283142,281.202515 
	C301.285675,283.122009 300.476868,285.163330 299.289368,286.955109 
	C297.137512,290.201996 293.906952,290.843750 290.472961,289.557739 
	C286.725342,288.154266 287.372681,284.902344 287.864227,281.891479 
	C288.732269,276.574615 292.786621,280.719604 295.670898,279.159058 
	C295.836090,277.846100 296.851990,275.601532 296.128082,274.470917 
	C293.603333,270.527771 296.662018,269.316803 298.821320,267.401978 
	C302.370911,264.254242 305.800079,260.970703 309.599701,257.448029 
	C318.657532,260.350037 322.158173,258.641571 325.049133,249.249802 
	C324.573395,249.354233 324.097656,249.458649 323.621918,249.563080 
	C322.787415,246.584503 322.016632,243.585571 321.076843,240.640579 
	C320.817902,239.829239 320.134399,238.689407 319.501160,238.586090 
	C318.804840,238.472488 317.464020,239.220123 317.244385,239.874557 
	C316.672119,241.579529 315.774567,243.806152 316.411469,245.167526 
	C318.300354,249.205109 316.866638,252.249023 314.518402,255.325653 
	C310.980103,253.463440 307.236969,251.836258 303.974884,249.528931 
	C303.186340,248.971176 303.328064,245.701660 304.185364,244.484314 
	C306.450134,241.268356 309.369293,238.517929 311.978119,235.538574 
	C316.856415,229.967468 327.466339,229.865097 331.728546,235.561615 
	C332.990112,237.247650 331.576569,241.806366 336.260803,239.196732 
	C338.337189,238.039963 340.784210,237.346924 342.523407,235.826263 
	C346.810638,232.077759 351.541901,233.243317 356.285156,233.989700 
	C357.910156,234.245392 359.489868,234.788864 361.111572,235.206329 
	C361.356140,232.811295 360.763336,229.455673 361.983002,228.555328 
	C364.624969,226.605057 368.111938,225.523102 371.409821,224.821335 
	C374.278717,224.210800 377.362610,224.610489 380.457397,225.018478 
	C378.524200,225.826462 376.485107,226.179718 374.965881,226.442902 
	C374.680481,228.965744 375.188690,231.628189 374.087585,232.972977 
	C369.222351,238.915253 363.915680,244.498383 358.697388,250.145523 
	C358.216980,250.665436 357.246704,250.892136 356.477722,250.960449 
	C350.916992,251.454559 348.242340,255.604599 346.065063,259.798676 
	C344.578522,262.662140 344.472198,266.156616 340.597412,267.438019 
	C340.002136,267.634857 340.178650,270.165527 339.618164,271.651184 
	C337.222839,273.792297 335.207581,275.899078 332.836243,278.045105 
	C330.278687,279.643250 330.814301,280.540588 333.379730,281.251465 
	C333.728394,282.338928 333.880890,283.169647 333.609070,284.002136 
	C332.337036,284.047577 331.489319,284.091278 330.641632,284.134979 
	C330.178802,284.307587 329.715942,284.480194 328.715027,284.867065 
	C326.792999,285.384705 325.409088,285.688080 324.025146,285.991425 
z"/>
<path fill="#BBBBBB" opacity="1.000000" stroke="none" 
	d="
M335.620972,304.051483 
	C332.359467,308.575317 328.709961,312.966064 325.108093,317.395538 
	C323.365601,319.538391 321.893890,321.929321 319.984802,323.903534 
	C314.387604,329.691681 308.617462,335.312195 302.952515,341.035461 
	C301.887573,342.111389 300.995483,343.358398 300.024658,344.913635 
	C298.273804,345.523499 296.521942,345.746185 294.277405,345.510193 
	C292.549225,345.033539 291.313721,345.015564 290.078217,344.997559 
	C274.838562,334.565643 272.653778,323.070282 280.145935,309.478638 
	C281.104553,307.739655 282.133362,306.038818 283.149811,304.332336 
	C288.427155,295.472351 298.409760,290.647125 308.592651,292.440887 
	C310.162170,292.717346 311.655731,294.575836 312.771240,296.021484 
	C314.655426,298.463257 316.091431,301.247681 317.935516,303.724487 
	C319.762848,306.178741 322.079742,306.634155 325.118103,304.245972 
	C326.095825,303.325867 326.550873,302.722076 327.005951,302.118317 
	C329.754822,302.723663 332.503693,303.328979 335.620972,304.051483 
z"/>
<path fill="#D1D1D1" opacity="1.000000" stroke="none" 
	d="
M223.389786,225.913422 
	C223.108780,229.149612 221.755295,232.647034 225.884781,235.180145 
	C226.090164,235.997589 225.985657,236.519333 225.881149,237.041061 
	C225.941162,237.824097 226.001160,238.607147 226.093521,240.089417 
	C224.916183,241.140396 223.502411,242.084045 222.529663,241.748642 
	C215.808334,239.431122 212.980576,240.345581 209.990280,246.828094 
	C209.432465,248.037354 210.025742,250.229187 210.819885,251.515686 
	C212.429337,254.123077 214.539886,256.421143 216.149323,258.997467 
	C216.333389,259.727875 216.811996,260.307526 217.502304,261.089691 
	C217.802643,261.863281 217.891266,262.434418 217.634247,263.039001 
	C213.878418,266.394775 210.482437,269.731781 207.054153,273.035278 
	C203.601578,276.362213 199.796021,279.383240 196.708572,283.016998 
	C188.575867,292.588806 180.407318,302.072296 169.909363,309.202789 
	C166.362686,306.386230 164.682175,302.731781 164.109085,298.206879 
	C163.454086,293.035309 162.128555,287.948669 161.578110,282.287415 
	C162.059814,280.899353 162.057770,280.048950 162.055725,279.198578 
	C162.055725,279.198578 161.881363,278.827393 162.358383,278.802551 
	C166.841949,281.763702 169.727356,280.430023 172.745605,276.871857 
	C179.604523,268.785889 186.940887,261.105530 193.822067,253.037598 
	C199.464417,246.422150 204.729782,239.485168 210.162247,232.690704 
	C211.579590,233.748932 212.996933,234.807175 215.450592,236.639160 
	C216.662109,233.349945 217.669342,230.615402 218.966766,227.319687 
	C219.483383,226.087646 219.709793,225.416779 219.936203,224.745911 
	C220.408203,224.664047 220.880203,224.582184 221.831207,224.932510 
	C222.670059,225.547607 223.029922,225.730515 223.389786,225.913422 
z"/>
<path fill="#ACACAC" opacity="1.000000" stroke="none" 
	d="
M317.033478,385.426697 
	C318.744080,383.212891 320.833832,381.673218 321.866302,379.605621 
	C324.307770,374.716278 326.246674,369.575989 328.388794,364.537201 
	C337.477905,363.142120 334.008514,351.610443 341.723511,348.371979 
	C346.616058,346.318268 350.366058,341.542725 355.001617,337.938843 
	C358.720551,340.352448 358.720551,340.352448 368.454315,337.988434 
	C367.773163,345.554230 365.393311,352.116119 359.379059,356.585907 
	C354.536499,360.184906 352.216125,364.363800 353.731598,370.250549 
	C355.479980,377.041809 352.739410,382.036926 348.102020,386.694122 
	C346.763611,388.038239 346.604156,390.566650 345.934601,392.562317 
	C345.580627,393.617401 345.568756,394.914795 344.925354,395.722931 
	C342.341583,398.968170 339.805817,402.310638 336.817841,405.161865 
	C331.698425,410.046936 323.826843,409.035126 320.988464,402.553436 
	C318.726379,397.387726 318.218628,391.453766 317.033478,385.426697 
z"/>
<path fill="#D4D4D4" opacity="1.000000" stroke="none" 
	d="
M210.217377,232.375092 
	C204.729782,239.485168 199.464417,246.422150 193.822067,253.037598 
	C186.940887,261.105530 179.604523,268.785889 172.745605,276.871857 
	C169.727356,280.430023 166.841949,281.763702 162.417084,278.606110 
	C162.459702,276.745514 162.920624,275.056549 163.991226,273.140320 
	C166.775024,272.071259 168.028000,270.973877 165.717834,268.887787 
	C168.149567,265.886810 167.478943,262.595581 166.662064,259.264343 
	C165.758713,255.580444 164.683716,251.915573 164.125305,248.176407 
	C163.528275,244.178680 161.491547,244.103348 158.579636,245.554871 
	C155.625900,247.027222 152.706635,248.568665 149.450134,250.252472 
	C149.520737,248.594986 149.695297,246.680267 150.363632,244.957062 
	C151.131516,242.977173 152.336609,241.166840 153.549896,239.005798 
	C155.137772,236.744003 156.527542,234.759293 158.016907,232.452179 
	C161.391144,230.208084 164.460953,227.443222 167.993927,226.584946 
	C172.115692,225.583664 176.669617,225.921982 180.984756,226.286316 
	C184.881943,226.615387 188.760605,227.577713 192.551346,228.612747 
	C195.239059,229.346619 197.737152,230.750671 200.381271,231.681137 
	C201.364410,232.027130 202.522247,231.876663 204.338440,232.004562 
	C202.879028,229.341141 201.874039,227.507050 201.187546,225.219772 
	C201.750854,224.568558 201.915161,224.317749 201.998947,224.014191 
	C204.226669,223.981567 206.454407,223.948944 208.873810,224.700058 
	C209.489609,227.035568 209.913742,228.587341 210.337891,230.139114 
	C210.316101,230.779236 210.294312,231.419373 210.217377,232.375092 
z"/>
<path fill="#C9C9C9" opacity="1.000000" stroke="none" 
	d="
M169.967850,309.552734 
	C180.407318,302.072296 188.575867,292.588806 196.708572,283.016998 
	C199.796021,279.383240 203.601578,276.362213 207.054153,273.035278 
	C210.482437,269.731781 213.878418,266.394775 217.991394,263.117249 
	C219.822052,261.804718 221.363281,260.617035 222.002502,259.059235 
	C224.173599,253.768433 226.026016,248.346832 228.000153,242.975189 
	C230.900833,244.888306 233.801498,246.801422 236.702164,248.714539 
	C236.506363,249.218597 236.310562,249.722641 236.114761,250.226700 
	C237.650314,249.472260 239.185867,248.717819 240.768829,247.940063 
	C241.913452,251.151962 243.046494,254.254364 244.124802,257.375702 
	C245.632706,261.740570 244.382141,263.985535 239.861832,264.876373 
	C237.621338,265.317871 235.339188,265.547913 232.402405,265.970520 
	C235.190460,272.847504 230.411041,275.148712 226.163055,278.247162 
	C221.106583,281.935303 216.276154,286.054871 211.911469,290.536469 
	C207.360336,295.209534 203.261505,300.449615 205.547684,308.048920 
	C205.138809,308.128754 204.729935,308.208588 204.321060,308.288422 
	C202.999390,306.365326 201.613068,304.482849 200.372467,302.508789 
	C198.828079,300.051331 197.024643,299.017517 194.175934,300.574463 
	C191.999588,301.763977 189.551865,302.470551 187.417831,303.721222 
	C181.952759,306.924042 180.468521,312.630768 183.454544,318.222046 
	C184.984070,321.085968 187.056458,321.252258 189.657867,319.617584 
	C191.459808,318.485199 193.393311,317.562195 195.268036,316.545624 
	C195.598694,316.936584 195.929337,317.327576 196.259995,317.718536 
	C194.668091,320.526550 193.076202,323.334564 191.126129,326.774353 
	C193.777817,327.140533 195.195618,327.336304 196.806046,327.558685 
	C197.118713,331.332397 197.414001,334.896240 197.736710,338.791016 
	C196.660217,338.150269 195.583786,337.730621 194.791016,337.002228 
	C189.128311,331.799347 184.143417,325.891357 176.588257,322.895233 
	C174.662415,322.131470 173.941620,318.261597 172.728867,315.788574 
	C171.778610,313.850861 170.923630,311.866394 169.967850,309.552734 
z"/>
<path fill="#BABABA" opacity="1.000000" stroke="none" 
	d="
M339.998260,271.616852 
	C340.178650,270.165527 340.002136,267.634857 340.597412,267.438019 
	C344.472198,266.156616 344.578522,262.662140 346.065063,259.798676 
	C348.242340,255.604599 350.916992,251.454559 356.477722,250.960449 
	C357.246704,250.892136 358.216980,250.665436 358.697388,250.145523 
	C363.915680,244.498383 369.222351,238.915253 374.087585,232.972977 
	C375.188690,231.628189 374.680481,228.965744 374.965881,226.442902 
	C376.485107,226.179718 378.524200,225.826462 380.816223,225.168182 
	C386.572418,223.531219 389.499054,226.929123 392.181580,230.859222 
	C393.379333,232.614075 394.716705,234.273666 396.091248,236.287582 
	C394.894440,238.797791 394.025543,241.467514 392.221375,243.109802 
	C386.253876,248.541840 380.433014,253.896454 376.091125,260.940857 
	C374.142426,264.102448 369.709167,265.719971 366.437958,268.085968 
	C365.271332,268.929749 364.033447,269.770447 363.126404,270.860748 
	C359.566620,275.139740 356.152924,279.539917 352.630615,283.850677 
	C350.535126,286.415222 348.338379,288.897003 345.914520,291.555725 
	C341.613373,293.582001 337.407623,295.906769 333.791077,291.327972 
	C332.371490,289.530670 331.900543,286.984131 330.819580,284.456879 
	C331.489319,284.091278 332.337036,284.047577 333.857910,284.202881 
	C337.904755,283.845856 341.289429,283.347382 344.646301,282.703705 
	C345.875885,282.467926 347.602539,282.200500 348.063324,281.370575 
	C348.466095,280.645142 347.722961,278.812775 346.939545,277.989655 
	C344.778931,275.719604 342.331970,273.722137 339.998260,271.616852 
z"/>
<path fill="#ABABAA" opacity="1.000000" stroke="none" 
	d="
M379.443970,312.754639 
	C375.700317,305.371552 381.402222,300.939178 384.931305,296.509949 
	C388.977600,291.431580 394.228577,287.167633 399.467377,283.229980 
	C403.818298,279.959686 408.910004,277.675049 414.089600,274.931030 
	C416.982605,288.060120 419.459595,301.211945 421.917206,314.260925 
	C411.184021,317.030212 408.637421,320.611206 408.768890,330.545746 
	C408.814148,333.964233 408.292664,337.390198 407.957794,341.754608 
	C402.062653,338.848022 400.804230,334.380951 399.923065,330.456787 
	C397.445190,319.422394 390.509918,314.118347 379.443970,312.754639 
z"/>
<path fill="#BFBFBE" opacity="1.000000" stroke="none" 
	d="
M240.251678,353.913116 
	C243.253098,358.075562 246.742966,361.046631 252.360672,361.439087 
	C254.903732,361.616791 257.299194,363.906799 259.859985,365.912231 
	C256.618347,372.396545 253.934830,378.652771 247.986053,382.565155 
	C243.354401,385.611267 238.279480,388.334534 234.514343,392.266785 
	C228.475998,398.573059 222.683121,405.315765 220.631866,414.323364 
	C220.392853,415.373016 218.682053,416.087524 217.653564,416.957428 
	C217.419617,410.898102 217.714325,404.755707 216.779236,398.806580 
	C216.070633,394.298340 213.794266,390.036499 212.379257,385.134644 
	C216.247437,379.405029 219.936859,374.194824 223.680130,369.023651 
	C224.044922,368.519684 224.828995,368.337708 225.269730,367.867035 
	C227.357712,365.637268 229.248306,363.201080 231.485840,361.138489 
	C234.265778,358.576019 237.317383,356.308197 240.251678,353.913116 
z"/>
<path fill="#C4C4C4" opacity="1.000000" stroke="none" 
	d="
M240.142151,353.583008 
	C237.317383,356.308197 234.265778,358.576019 231.485840,361.138489 
	C229.248306,363.201080 227.357712,365.637268 225.269730,367.867035 
	C224.828995,368.337708 224.044922,368.519684 223.680130,369.023651 
	C219.936859,374.194824 216.247437,379.405029 212.269012,384.803253 
	C201.078476,375.835205 197.409714,364.696991 201.897415,350.809418 
	C202.986115,347.440338 202.059357,343.420013 202.059357,339.171692 
	C205.612808,338.380096 209.720642,336.913239 213.907318,336.635681 
	C226.519211,335.799500 233.203964,344.738251 240.142151,353.583008 
z"/>
<path fill="#B7B7B7" opacity="1.000000" stroke="none" 
	d="
M217.539398,417.317200 
	C218.682053,416.087524 220.392853,415.373016 220.631866,414.323364 
	C222.683121,405.315765 228.475998,398.573059 234.514343,392.266785 
	C238.279480,388.334534 243.354401,385.611267 247.986053,382.565155 
	C253.934830,378.652771 256.618347,372.396545 260.007294,366.224792 
	C265.716095,370.708557 265.968567,372.339386 262.694489,378.376709 
	C261.525513,380.532227 260.366913,382.972626 260.222382,385.345062 
	C259.939331,389.992310 257.651886,393.415039 254.123001,395.675079 
	C248.174408,399.484772 245.462341,405.455109 241.995193,411.114777 
	C239.842514,414.628723 236.696732,417.845520 233.301254,420.187408 
	C230.629135,422.030396 230.039169,423.557709 230.356461,426.579926 
	C230.800049,430.805023 230.468323,435.111511 229.926193,439.521271 
	C223.845459,433.211456 218.540955,426.643158 217.539398,417.317200 
z"/>
<path fill="#C9C9C9" opacity="1.000000" stroke="none" 
	d="
M229.843613,224.065643 
	C227.273743,223.138367 227.048950,221.352493 229.272110,220.255035 
	C234.087128,217.878052 239.049896,214.594635 244.139130,214.219864 
	C256.215485,213.330551 268.400879,213.874008 280.541748,213.931656 
	C285.563843,213.955505 286.758362,215.508331 285.408264,220.484909 
	C283.333710,228.131821 280.324005,234.901108 270.984650,236.093811 
	C267.178986,236.579803 264.658386,239.029083 263.132050,242.889175 
	C262.393219,244.757645 259.820526,245.900986 258.078125,247.372620 
	C256.670837,245.545029 254.421722,243.879623 254.031815,241.856003 
	C253.223801,237.662384 253.095169,233.266418 253.261475,228.975922 
	C253.439087,224.393799 251.453171,221.563141 247.758667,219.206192 
	C244.011292,216.815491 241.144760,218.741562 238.080124,220.408127 
	C236.366501,221.339996 234.637039,222.242737 232.235977,223.177628 
	C230.986023,223.486328 230.414810,223.775986 229.843613,224.065643 
z"/>
<path fill="#181818" opacity="1.000000" stroke="none" 
	d="
M228.002472,242.642166 
	C226.026016,248.346832 224.173599,253.768433 222.002502,259.059235 
	C221.363281,260.617035 219.822052,261.804718 218.337051,263.083771 
	C217.891266,262.434418 217.802643,261.863281 217.503113,260.801086 
	C217.009430,259.822235 216.726639,259.334503 216.443848,258.846741 
	C214.539886,256.421143 212.429337,254.123077 210.819885,251.515686 
	C210.025742,250.229187 209.432465,248.037354 209.990280,246.828094 
	C212.980576,240.345581 215.808334,239.431122 222.529663,241.748642 
	C223.502411,242.084045 224.916183,241.140396 226.215714,240.388428 
	C226.871964,240.761871 227.438370,241.535507 228.002472,242.642166 
z"/>
<path fill="#C4C4C4" opacity="1.000000" stroke="none" 
	d="
M229.674774,224.337708 
	C230.414810,223.775986 230.986023,223.486328 231.869965,223.122650 
	C232.738480,223.717010 233.192001,224.521576 233.868362,225.029266 
	C236.328522,226.875977 239.182526,228.316086 241.279480,230.495132 
	C243.350189,232.646912 243.745895,235.282684 241.140854,237.919144 
	C239.965088,239.109100 239.745850,241.244171 238.910355,243.426590 
	C237.036743,242.220718 235.030243,240.929306 232.783783,239.483459 
	C238.928207,230.812866 228.741272,231.601715 225.896225,227.192993 
	C227.152374,226.294052 228.329147,225.451920 229.674774,224.337708 
z"/>
<path fill="#B3B3B3" opacity="1.000000" stroke="none" 
	d="
M294.507782,266.384491 
	C293.215698,265.232971 292.266693,263.924377 291.054352,262.252655 
	C290.273254,262.610718 288.879333,263.249695 287.485382,263.888672 
	C287.102142,263.676788 286.718903,263.464874 286.335632,263.252991 
	C287.782104,260.598206 289.228607,257.943420 290.675079,255.288635 
	C293.839020,257.715759 297.002991,260.142853 300.907990,263.138458 
	C298.011414,264.615662 296.431152,265.421539 294.507782,266.384491 
z"/>
<path fill="#BABABA" opacity="1.000000" stroke="none" 
	d="
M324.040100,286.354797 
	C325.409088,285.688080 326.792999,285.384705 328.531555,285.039459 
	C328.516022,286.675262 328.145844,288.352966 327.423309,291.627777 
	C325.710602,289.131317 324.882843,287.924774 324.040100,286.354797 
z"/>
<path fill="#D1D1D1" opacity="1.000000" stroke="none" 
	d="
M210.650681,229.943405 
	C209.913742,228.587341 209.489609,227.035568 209.103210,225.046478 
	C214.078979,224.786072 211.608963,227.590439 210.650681,229.943405 
z"/>
<path fill="#D1D1D1" opacity="1.000000" stroke="none" 
	d="
M165.456223,269.085205 
	C168.028000,270.973877 166.775024,272.071259 164.237442,272.933533 
	C164.314209,271.730255 164.754410,270.506439 165.456223,269.085205 
z"/>
<path fill="#B3B3B3" opacity="1.000000" stroke="none" 
	d="
M290.223999,345.327637 
	C291.313721,345.015564 292.549225,345.033539 293.896545,345.444122 
	C292.795532,345.777039 291.582642,345.717377 290.223999,345.327637 
z"/>
<path fill="#181818" opacity="1.000000" stroke="none" 
	d="
M226.148605,237.020325 
	C225.985657,236.519333 226.090164,235.997589 226.282684,235.189148 
	C226.808777,235.253250 227.246857,235.604080 227.684906,235.954895 
	C227.261963,236.303116 226.839020,236.651352 226.148605,237.020325 
z"/>
<path fill="#B3B3B3" opacity="1.000000" stroke="none" 
	d="
M326.659912,301.983856 
	C326.550873,302.722076 326.095825,303.325867 325.330627,303.965424 
	C325.451599,303.283936 325.882721,302.566650 326.659912,301.983856 
z"/>
<path fill="#D4D4D4" opacity="1.000000" stroke="none" 
	d="
M161.843704,279.401550 
	C162.057770,280.048950 162.059814,280.899353 161.710419,281.871857 
	C161.449875,281.197510 161.540787,280.401001 161.843704,279.401550 
z"/>
<path fill="#BBBBBB" opacity="1.000000" stroke="none" 
	d="
M219.625397,224.725388 
	C219.709793,225.416779 219.483383,226.087646 218.938339,226.934357 
	C218.851334,226.308426 219.082962,225.506638 219.625397,224.725388 
z"/>
<path fill="#C9C9C9" opacity="1.000000" stroke="none" 
	d="
M205.484818,309.450287 
	C205.411514,309.502502 205.449036,309.273895 205.449036,309.273895 
	C205.449036,309.273895 205.558121,309.398071 205.484818,309.450287 
z"/>
<path fill="#BBBBBB" opacity="1.000000" stroke="none" 
	d="
M223.295898,225.592773 
	C223.029922,225.730515 222.670059,225.547607 222.159821,225.093353 
	C222.406952,224.972046 222.804474,225.122086 223.295898,225.592773 
z"/>
<path fill="#D1D1D1" opacity="1.000000" stroke="none" 
	d="
M201.710205,223.971741 
	C201.915161,224.317749 201.750854,224.568558 201.307068,224.877518 
	C201.212555,224.635406 201.317017,224.282364 201.710205,223.971741 
z"/>
<path fill="#181818" opacity="1.000000" stroke="none" 
	d="
M339.618164,271.651184 
	C342.331970,273.722137 344.778931,275.719604 346.939545,277.989655 
	C347.722961,278.812775 348.466095,280.645142 348.063324,281.370575 
	C347.602539,282.200500 345.875885,282.467926 344.646301,282.703705 
	C341.289429,283.347382 337.904755,283.845856 334.282227,284.201111 
	C333.880890,283.169647 333.728394,282.338928 333.439362,280.880127 
	C333.265991,279.503357 333.229156,278.754578 333.192322,278.005829 
	C335.207581,275.899078 337.222839,273.792297 339.618164,271.651184 
z"/>
<path fill="#BABABA" opacity="1.000000" stroke="none" 
	d="
M332.836243,278.045105 
	C333.229156,278.754578 333.265991,279.503357 333.243195,280.623413 
	C330.814301,280.540588 330.278687,279.643250 332.836243,278.045105 
z"/>
<path fill="#C9C9C9" opacity="1.000000" stroke="none" 
	d="
M216.149323,258.997467 
	C216.726639,259.334503 217.009430,259.822235 217.291397,260.598602 
	C216.811996,260.307526 216.333389,259.727875 216.149323,258.997467 
z"/>
</svg>